<?xml version="1.0" encoding="UTF-8" standalone="no"?>
<!-- Created with Inkscape (http://www.inkscape.org/) -->

<svg
   width="16"
   height="16"
   viewBox="0 0 16 16"
   version="1.1"
   id="svg1430"
   inkscape:version="1.3.2 (1:1.3.2+202311252150+091e20ef0f)"
   sodipodi:docname="document-import.svg"
   xml:space="preserve"
   xmlns:inkscape="http://www.inkscape.org/namespaces/inkscape"
   xmlns:sodipodi="http://sodipodi.sourceforge.net/DTD/sodipodi-0.dtd"
   xmlns="http://www.w3.org/2000/svg"
   xmlns:svg="http://www.w3.org/2000/svg"
   xmlns:rdf="http://www.w3.org/1999/02/22-rdf-syntax-ns#"
   xmlns:cc="http://creativecommons.org/ns#"
   xmlns:dc="http://purl.org/dc/elements/1.1/"><defs
     id="defs1424" /><sodipodi:namedview
     id="base"
     pagecolor="#ffffff"
     bordercolor="#666666"
     borderopacity="1.0"
     inkscape:pageopacity="0.0"
     inkscape:pageshadow="2"
     inkscape:zoom="22.4"
     inkscape:cx="9.6651785"
     inkscape:cy="11.272321"
     inkscape:document-units="px"
     inkscape:current-layer="layer1"
     showgrid="true"
     units="px"
     inkscape:pagecheckerboard="true"
     inkscape:object-paths="true"
     inkscape:window-width="1176"
     inkscape:window-height="1013"
     inkscape:window-x="0"
     inkscape:window-y="0"
     inkscape:window-maximized="0"
     inkscape:snap-bbox="true"
     inkscape:bbox-nodes="true"
     inkscape:snap-nodes="false"
     inkscape:showpageshadow="0"
     inkscape:deskcolor="#505050"><inkscape:grid
       type="xygrid"
       id="grid1978"
       empspacing="4"
       originx="0"
       originy="0"
       spacingy="1"
       spacingx="1"
       units="px"
       visible="true" /></sodipodi:namedview><metadata
     id="metadata1427"><rdf:RDF><cc:Work
         rdf:about=""><dc:format>image/svg+xml</dc:format><dc:type
           rdf:resource="http://purl.org/dc/dcmitype/StillImage" /><dc:title /></cc:Work></rdf:RDF></metadata><g
     inkscape:label="Layer 1"
     inkscape:groupmode="layer"
     id="layer1"
     transform="translate(0,-292.76665)"><g
       style="fill:none"
       id="g1"
       transform="matrix(0.79636259,0,0,0.79636259,-2.4965634,291.70191)"><path
         d="m 16.020363,8.46835 c -0.2936,-0.29216 -0.7685,-0.29098 -1.0607,0.00264 -0.2921,0.29363 -0.2909,0.7685 0.0027,1.06066 z m 1.957,4.06335 c 0.2936,0.2921 0.7685,0.2909 1.0607,-0.0027 0.2921,-0.2936 0.2909,-0.7685 -0.0027,-1.0607 z m 1.058,0 c 0.2936,-0.2922 0.2948,-0.7671 0.0027,-1.0607 -0.2922,-0.2936 -0.7671,-0.2948 -1.0607,-0.0027 z m -4.073,1.9366 c -0.2936,0.2922 -0.2948,0.7671 -0.0027,1.0607 0.2922,0.2936 0.7671,0.2948 1.0607,0.0027 z m 3.544,-1.7183 c 0.4142,0 0.75,-0.3358 0.75,-0.75 0,-0.4142 -0.3358,-0.75 -0.75,-0.75 z M 4.5063628,11.25 c -0.41421,0 -0.75,0.3358 -0.75,0.75 0,0.4142 0.33579,0.75 0.75,0.75 z m 10.4560002,-1.71835 3.015,3.00005 1.058,-1.0634 -3.015,-2.99995 z m 3.015,1.93665 -3.015,3 1.058,1.0634 3.015,-3 z m 0.529,-0.2183 H 4.5063628 v 1.5 H 18.506363 Z"
         fill="#000000"
         id="path3"
         style="fill:#181818;fill-opacity:1" /><path
         d="m 9.5,14.237565 c 0,2.2091 1.7909,4 4,4 h 4 c 2.2091,0 4,-1.7909 4,-4 V 8.2375654 c 0,-2.20914 -1.7909,-4 -4,-4 h -4 c -2.2091,0 -4,1.79086 -4,4"
         stroke="#000000"
         stroke-width="1.5"
         stroke-linecap="round"
         stroke-linejoin="round"
         id="path4"
         style="stroke:#181818;stroke-opacity:1" /></g></g></svg>
