<?xml version="1.0" encoding="UTF-8" standalone="no"?>
<!-- Created with Inkscape (http://www.inkscape.org/) -->

<svg
   width="18"
   height="18"
   viewBox="0 0 18 18"
   version="1.1"
   id="svg1430"
   inkscape:version="1.3.2 (1:1.3.2+202311252150+091e20ef0f)"
   sodipodi:docname="media-playback-stop.svg"
   xml:space="preserve"
   xmlns:inkscape="http://www.inkscape.org/namespaces/inkscape"
   xmlns:sodipodi="http://sodipodi.sourceforge.net/DTD/sodipodi-0.dtd"
   xmlns="http://www.w3.org/2000/svg"
   xmlns:svg="http://www.w3.org/2000/svg"
   xmlns:rdf="http://www.w3.org/1999/02/22-rdf-syntax-ns#"
   xmlns:cc="http://creativecommons.org/ns#"
   xmlns:dc="http://purl.org/dc/elements/1.1/"><defs
     id="defs1424" /><sodipodi:namedview
     id="base"
     pagecolor="#ffffff"
     bordercolor="#666666"
     borderopacity="1.0"
     inkscape:pageopacity="0.0"
     inkscape:pageshadow="2"
     inkscape:zoom="15.839192"
     inkscape:cx="8.3021912"
     inkscape:cy="14.931317"
     inkscape:document-units="px"
     inkscape:current-layer="layer1"
     showgrid="true"
     units="px"
     inkscape:pagecheckerboard="true"
     inkscape:object-paths="true"
     inkscape:window-width="1920"
     inkscape:window-height="1013"
     inkscape:window-x="0"
     inkscape:window-y="0"
     inkscape:window-maximized="1"
     inkscape:showpageshadow="0"
     inkscape:deskcolor="#505050"><inkscape:grid
       type="xygrid"
       id="grid1978"
       empspacing="4"
       originx="0"
       originy="0"
       spacingy="1"
       spacingx="1"
       units="px"
       visible="true" /></sodipodi:namedview><metadata
     id="metadata1427"><rdf:RDF><cc:Work
         rdf:about=""><dc:format>image/svg+xml</dc:format><dc:type
           rdf:resource="http://purl.org/dc/dcmitype/StillImage" /></cc:Work></rdf:RDF></metadata><g
     inkscape:label="Layer 1"
     inkscape:groupmode="layer"
     id="layer1"
     transform="translate(0,-292.76665)"><path
       d="m 9.1568102,294.5715 c 4.2308188,0 7.6730698,3.44225 7.6730698,7.67307 0,4.23081 -3.442251,7.67307 -7.6730698,7.67307 -4.2308187,0 -7.6730696,-3.44226 -7.6730696,-7.67307 0,-0.0654 5.75e-4,-0.13108 0.00222,-0.19633 0.01957,-0.76722 1.1705277,-0.73799 1.1509604,0.0292 -0.00148,0.0552 -0.00222,0.11133 -0.00222,0.1671 0,3.60875 2.9133527,6.52211 6.5221092,6.52211 3.6087568,0 6.5221088,-2.91336 6.5221088,-6.52211 0,-3.60876 -2.913352,-6.52211 -6.5221088,-6.52211 -2.064404,0 -3.8973536,0.95762 -5.0916507,2.44953 l 0.5012964,-0.0884 c 0.7558018,-0.13335 0.9558714,1.00038 0.2000695,1.13373 l -1.8890441,0.33269 C 2.5644,299.60527 2.2657878,299.39626 2.210584,299.08316 l -0.3326994,-1.88904 c -0.069195,-0.36379 0.2181933,-0.69731 0.5882184,-0.68264 0.2733877,0.0111 0.5011439,0.2132 0.544758,0.48332 l 0.095162,0.53876 c 1.4050106,-1.8014 3.5937343,-2.96207 6.0507849,-2.96207 z"
       id="path1-3"
       style="fill:#2f2f2f;fill-opacity:1;stroke:#2f2f2f;stroke-width:0.3;stroke-dasharray:none;stroke-opacity:1"
       sodipodi:nodetypes="csssccssssccccccccccc" /></g></svg>
