<?xml version="1.0" encoding="UTF-8" standalone="no"?>
<!-- Created with Inkscape (http://www.inkscape.org/) -->

<svg
   width="18"
   height="18"
   viewBox="0 0 18 18"
   version="1.1"
   id="svg1430"
   inkscape:version="1.3.2 (1:1.3.2+202311252150+091e20ef0f)"
   sodipodi:docname="option.svg"
   xml:space="preserve"
   xmlns:inkscape="http://www.inkscape.org/namespaces/inkscape"
   xmlns:sodipodi="http://sodipodi.sourceforge.net/DTD/sodipodi-0.dtd"
   xmlns:xlink="http://www.w3.org/1999/xlink"
   xmlns="http://www.w3.org/2000/svg"
   xmlns:svg="http://www.w3.org/2000/svg"
   xmlns:rdf="http://www.w3.org/1999/02/22-rdf-syntax-ns#"
   xmlns:cc="http://creativecommons.org/ns#"
   xmlns:dc="http://purl.org/dc/elements/1.1/"><defs
     id="defs1424"><linearGradient
       id="linearGradient1022"><stop
         id="stop2"
         offset="0" /><stop
         id="stop4"
         offset="1"
         stop-opacity="0" /></linearGradient><linearGradient
       gradientUnits="userSpaceOnUse"
       gradientTransform="matrix(0.11943,0,0,0.079621,10.946,9.5369)"
       y2="324.75"
       y1="400.49"
       x2="211.49"
       x1="116.53"
       id="sublime-icon-b"><stop
         id="stop7"
         offset="0"
         stop-color="#FF9700" /><stop
         id="stop9"
         offset=".57396"
         stop-color="#F48E00" /><stop
         id="stop11"
         offset="1"
         stop-color="#CE6E00" /></linearGradient><filter
       color-interpolation-filters="sRGB"
       height="1.1241322"
       width="1.0827537"
       y="-0.062066076"
       x="-0.041376868"
       id="c"><feGaussianBlur
         id="feGaussianBlur14-3"
         stdDeviation="6.7714073" /></filter><linearGradient
       gradientUnits="userSpaceOnUse"
       gradientTransform="matrix(3.7795,0,0,3.7795,8.351931,-5.3617206)"
       y2="1.852"
       y1="15.081"
       x2="7.9373"
       x1="7.9373"
       id="linearGradient862-3"><stop
         id="stop17"
         offset="0"
         stop-color="#1a1a1a" /><stop
         id="stop19"
         offset="1"
         stop-color="#4d4d4d" /></linearGradient><linearGradient
       xlink:href="#linearGradient1022"
       gradientUnits="userSpaceOnUse"
       y2="31.404"
       y1="31.404"
       x2="45.273"
       x1="20.308"
       id="linearGradient1024" /><linearGradient
       xlink:href="#linearGradient1022"
       gradientUnits="userSpaceOnUse"
       gradientTransform="matrix(0.11943,0,0,0.079621,10.946,9.4682)"
       y2="340.31"
       y1="340.31"
       x2="79.111"
       x1="287.63"
       id="linearGradient1038" /><linearGradient
       gradientUnits="userSpaceOnUse"
       y2="23.514"
       y1="23.514"
       x2="45.272"
       x1="20.308"
       id="linearGradient1046"><stop
         id="stop24"
         offset="0"
         stop-color="#ff9800" /><stop
         id="stop26"
         offset="1"
         stop-color="#ffc522" /></linearGradient><filter
       color-interpolation-filters="sRGB"
       height="1.1241322"
       width="1.0827537"
       y="-0.062066076"
       x="-0.041376868"
       id="c-1"><feGaussianBlur
         id="feGaussianBlur14-3-2"
         stdDeviation="6.7714073" /></filter><filter
       color-interpolation-filters="sRGB"
       height="1.1241322"
       width="1.0827537"
       y="-0.062066076"
       x="-0.041376868"
       id="c-2"><feGaussianBlur
         id="feGaussianBlur14-3-9"
         stdDeviation="6.7714073" /></filter></defs><sodipodi:namedview
     id="base"
     pagecolor="#ffffff"
     bordercolor="#666666"
     borderopacity="1.0"
     inkscape:pageopacity="0.0"
     inkscape:pageshadow="2"
     inkscape:zoom="16"
     inkscape:cx="16.09375"
     inkscape:cy="18.15625"
     inkscape:document-units="px"
     inkscape:current-layer="layer1"
     showgrid="false"
     units="px"
     inkscape:pagecheckerboard="true"
     inkscape:object-paths="true"
     inkscape:window-width="1920"
     inkscape:window-height="1013"
     inkscape:window-x="0"
     inkscape:window-y="0"
     inkscape:window-maximized="1"
     inkscape:snap-bbox="true"
     inkscape:bbox-nodes="true"
     inkscape:snap-nodes="true"
     inkscape:showpageshadow="0"
     inkscape:deskcolor="#505050"
     showguides="true"><inkscape:grid
       type="xygrid"
       id="grid1978"
       empspacing="4"
       originx="0.5"
       originy="0.5"
       spacingy="1"
       spacingx="1"
       units="px"
       visible="false" /></sodipodi:namedview><metadata
     id="metadata1427"><rdf:RDF><cc:Work
         rdf:about=""><dc:format>image/svg+xml</dc:format><dc:type
           rdf:resource="http://purl.org/dc/dcmitype/StillImage" /></cc:Work></rdf:RDF></metadata><g
     inkscape:label="Layer 1"
     inkscape:groupmode="layer"
     id="layer1"
     transform="translate(0,-292.76665)"><g
       style="fill:#ffffff;fill-opacity:0.298039;stroke:none"
       id="g9"
       transform="matrix(0,19.204623,-19.204623,0,240.36306,120.93496)" /><path
       fill="#40b6e0"
       d="m 14.99358,302.91814 1.722283,1.23569 c -0.331463,1.0252 -0.875588,1.95477 -1.580369,2.73669 l -1.931252,-0.87124 c -0.549666,0.48436 -1.195226,0.86244 -1.90454,1.10211 l -0.210423,2.10848 c -0.509877,0.10829 -1.038717,0.16525 -1.5808629,0.16525 -0.5421455,0 -1.0709872,-0.057 -1.5808615,-0.16525 l -0.2104257,-2.10848 c -0.7093145,-0.23967 -1.3548714,-0.61775 -1.9045374,-1.10211 l -1.9312533,0.87124 C 3.176558,306.1086 2.6324338,305.17903 2.3009704,304.15383 l 1.7222826,-1.2357 c -0.070459,-0.3545 -0.1074077,-0.72108 -0.1074077,-1.09629 0,-0.3752 0.036951,-0.74178 0.1074077,-1.09628 l -1.7222826,-1.2357 c 0.3314634,-1.02519 0.8755876,-1.95476 1.5803678,-2.73669 l 1.9312533,0.87124 c 0.549666,-0.48436 1.1952229,-0.86244 1.9045374,-1.1021 l 0.2104257,-2.10849 c 0.5098743,-0.10828 1.038716,-0.16525 1.5808615,-0.16525 0.5421459,0 1.0709859,0.0569 1.5808629,0.16525 l 0.210423,2.10849 c 0.709314,0.23966 1.354874,0.61774 1.90454,1.1021 l 1.931252,-0.87124 c 0.704781,0.78192 1.248906,1.7115 1.580369,2.73669 l -1.722283,1.23569 c 0.07045,0.35451 0.107407,0.72109 0.107407,1.09629 0,0.37521 -0.03696,0.74179 -0.107407,1.0963 z m -5.4851639,1.58394 c 1.4799979,0 2.6797729,-1.19988 2.6797729,-2.68 0,-1.48013 -1.199775,-2.68001 -2.6797729,-2.68001 -1.4799989,0 -2.6797738,1.19988 -2.6797738,2.68001 0,1.48012 1.1997749,2.68 2.6797738,2.68 z"
       id="path2"
       style="fill-rule:evenodd;stroke-width:1.693;fill:#2f2f2f;fill-opacity:1;stroke-dasharray:none" /></g></svg>
