<?xml version="1.0" encoding="UTF-8" standalone="no"?>
<!-- Created with Inkscape (http://www.inkscape.org/) -->

<svg
   width="16"
   height="16"
   viewBox="0 0 16 16"
   version="1.1"
   id="svg1430"
   inkscape:version="1.3.2 (1:1.3.2+202311252150+091e20ef0f)"
   sodipodi:docname="tab-new.svg"
   xml:space="preserve"
   xmlns:inkscape="http://www.inkscape.org/namespaces/inkscape"
   xmlns:sodipodi="http://sodipodi.sourceforge.net/DTD/sodipodi-0.dtd"
   xmlns:xlink="http://www.w3.org/1999/xlink"
   xmlns="http://www.w3.org/2000/svg"
   xmlns:svg="http://www.w3.org/2000/svg"
   xmlns:rdf="http://www.w3.org/1999/02/22-rdf-syntax-ns#"
   xmlns:cc="http://creativecommons.org/ns#"
   xmlns:dc="http://purl.org/dc/elements/1.1/"><defs
     id="defs1424"><clipPath
       id="clip0_429_11182"><rect
         width="24"
         height="24"
         fill="#ffffff"
         id="rect4"
         x="0"
         y="0" /></clipPath><linearGradient
       id="linearGradient1022"><stop
         id="stop2"
         offset="0" /><stop
         id="stop4"
         offset="1"
         stop-opacity="0" /></linearGradient><linearGradient
       gradientUnits="userSpaceOnUse"
       gradientTransform="matrix(0.11943,0,0,0.079621,10.946,9.5369)"
       y2="324.75"
       y1="400.48999"
       x2="211.49001"
       x1="116.53"
       id="sublime-icon-b"><stop
         id="stop7"
         offset="0"
         stop-color="#FF9700" /><stop
         id="stop9"
         offset=".57396"
         stop-color="#F48E00" /><stop
         id="stop11"
         offset="1"
         stop-color="#CE6E00" /></linearGradient><filter
       color-interpolation-filters="sRGB"
       height="1.1241322"
       width="1.0827537"
       y="-0.062066074"
       x="-0.041376866"
       id="c"><feGaussianBlur
         id="feGaussianBlur14-3"
         stdDeviation="6.7714073" /></filter><linearGradient
       gradientUnits="userSpaceOnUse"
       gradientTransform="matrix(3.7795,0,0,3.7795,8.351931,-5.3617206)"
       y2="1.852"
       y1="15.081"
       x2="7.9373002"
       x1="7.9373002"
       id="linearGradient862-3"><stop
         id="stop17"
         offset="0"
         stop-color="#1a1a1a" /><stop
         id="stop19"
         offset="1"
         stop-color="#4d4d4d" /></linearGradient><linearGradient
       xlink:href="#linearGradient1022"
       gradientUnits="userSpaceOnUse"
       y2="31.403999"
       y1="31.403999"
       x2="45.272999"
       x1="20.308001"
       id="linearGradient1024" /><linearGradient
       xlink:href="#linearGradient1022"
       gradientUnits="userSpaceOnUse"
       gradientTransform="matrix(0.11943,0,0,0.079621,10.946,9.4682)"
       y2="340.31"
       y1="340.31"
       x2="79.111"
       x1="287.63"
       id="linearGradient1038" /><linearGradient
       gradientUnits="userSpaceOnUse"
       y2="23.514"
       y1="23.514"
       x2="45.271999"
       x1="20.308001"
       id="linearGradient1046"><stop
         id="stop24"
         offset="0"
         stop-color="#ff9800" /><stop
         id="stop26"
         offset="1"
         stop-color="#ffc522" /></linearGradient><clipPath
       id="clip0_429_11218"><rect
         width="24"
         height="24"
         fill="white"
         id="rect4-1" /></clipPath></defs><sodipodi:namedview
     id="base"
     pagecolor="#ffffff"
     bordercolor="#666666"
     borderopacity="1.0"
     inkscape:pageopacity="0.0"
     inkscape:pageshadow="2"
     inkscape:zoom="15.839192"
     inkscape:cx="-1.6099306"
     inkscape:cy="16.320277"
     inkscape:document-units="px"
     inkscape:current-layer="layer1"
     showgrid="true"
     units="px"
     inkscape:pagecheckerboard="true"
     inkscape:object-paths="true"
     inkscape:window-width="1920"
     inkscape:window-height="1013"
     inkscape:window-x="0"
     inkscape:window-y="0"
     inkscape:window-maximized="1"
     inkscape:snap-bbox="true"
     inkscape:bbox-nodes="true"
     inkscape:snap-nodes="false"
     inkscape:showpageshadow="0"
     inkscape:deskcolor="#505050"><inkscape:grid
       type="xygrid"
       id="grid1978"
       empspacing="4"
       originx="0"
       originy="0"
       spacingy="1"
       spacingx="1"
       units="px"
       visible="true" /></sodipodi:namedview><metadata
     id="metadata1427"><rdf:RDF><cc:Work
         rdf:about=""><dc:format>image/svg+xml</dc:format><dc:type
           rdf:resource="http://purl.org/dc/dcmitype/StillImage" /><dc:title /></cc:Work></rdf:RDF></metadata><g
     inkscape:label="Layer 1"
     inkscape:groupmode="layer"
     id="layer1"
     transform="translate(0,-292.76665)"><path
       d="m 2.2554455,297.24276 c -0.3662931,0 -0.6632378,0.29695 -0.6632378,0.66323 0,0.36638 0.2969447,0.66324 0.6632378,0.66324 z m 2.3213339,1.32647 c 0.3662844,0 0.6632378,-0.29686 0.6632378,-0.66324 0,-0.36628 -0.2969534,-0.66323 -0.6632378,-0.66323 z m 0,-1.32647 c -0.3662845,0 -0.6632388,0.29695 -0.6632388,0.66323 0,0.36638 0.2969543,0.66324 0.6632388,0.66324 z m 2.3213329,1.32647 c 0.3662844,0 0.6632378,-0.29686 0.6632378,-0.66324 0,-0.36628 -0.2969534,-0.66323 -0.6632378,-0.66323 z m -1.6580951,-0.66324 c 0,-0.36628 -0.2969534,-0.66323 -0.6632378,-0.66323 -0.3662845,0 -0.6632388,0.29695 -0.6632388,0.66323 z m -1.3264766,2.32134 c 0,0.36637 0.2969543,0.66324 0.6632388,0.66324 0.3662844,0 0.6632378,-0.29687 0.6632378,-0.66324 z m 0,-2.32134 c 0,0.36638 0.2969543,0.66324 0.6632388,0.66324 0.3662844,0 0.6632378,-0.29686 0.6632378,-0.66324 z m 1.3264766,-2.3213 c 0,-0.36628 -0.2969534,-0.66323 -0.6632378,-0.66323 -0.3662845,0 -0.6632388,0.29695 -0.6632388,0.66323 z m -2.9845717,2.98454 h 2.3213339 v -1.32647 H 2.2554455 Z m 2.3213339,0 h 2.3213329 v -1.32647 H 4.5767794 Z m -0.6632388,-0.66324 v 2.32134 h 1.3264766 v -2.32134 z m 1.3264766,0 v -2.3213 H 3.9135406 v 2.3213 z"
       fill="#000000"
       id="path2"
       style="fill:#2f2f2f;fill-opacity:1;stroke-width:0.884;stroke-dasharray:none" /><g
       style="fill:#ffffff;fill-opacity:0.298039;stroke:none"
       id="g9"
       transform="matrix(0,19.204623,-19.204623,0,215.28613,114.92867)" /><path
       fill-rule="evenodd"
       clip-rule="evenodd"
       d="m 7.482196,307.16557 c -1.0069977,-0.0228 -1.8070696,-0.85365 -1.7917749,-1.86084 0.015298,-1.00709 0.840135,-1.81328 1.8473297,-1.80548 1.0072934,0.008 1.8196022,0.82661 1.8193056,1.8339 -0.00525,0.49172 -0.2057411,0.96122 -0.5574258,1.30489 -0.3517828,0.34381 -0.8257278,0.53356 -1.3174346,0.52753 z"
       stroke="#000000"
       stroke-width="1.48015"
       stroke-linecap="round"
       stroke-linejoin="round"
       id="path1"
       style="fill:none;stroke:#2f2f2f;stroke-opacity:1" /><path
       d="m 8.6090859,305.33315 c 0,0.40872 0.3313567,0.74009 0.7400765,0.74009 0.4087194,0 0.7400756,-0.33137 0.7400756,-0.74009 z m 1.4801521,-7.04845 c 0,-0.40874 -0.3313562,-0.74008 -0.7400756,-0.74008 -0.4087198,0 -0.7400765,0.33134 -0.7400765,0.74008 z m -0.7400756,0 H 8.6090859 c 0,0.2093 0.088612,0.40882 0.2439294,0.5491 0.1553172,0.14032 0.3627355,0.20831 0.5710424,0.18719 z m 0,-1.26899 h 0.7400756 c 0,-0.009 -9.7e-5,-0.0166 -3.94e-4,-0.025 z M 9.8496521,295.78 9.3359393,295.24733 v 0 z m 1.2529989,-0.45561 -0.05161,0.73828 c 0.01717,8.6e-4 0.03434,0.002 0.05161,0.002 z m 1.017359,0 v 0.74015 l 0.01134,-1.6e-4 z m 1.381475,1.33608 0.739978,0.0119 c 10e-5,-0.009 10e-5,-0.0169 0,-0.0253 z m -1.240369,1.3282 -0.06246,-0.73756 -0.01242,8.7e-4 z m -2.171878,7.34448 V 298.2847 H 8.6090859 v 7.04845 z m 0,-7.04845 v -1.26899 H 8.6090859 v 1.26899 z m -3.94e-4,-1.29396 c -0.0086,-0.25471 0.09118,-0.50113 0.274618,-0.67806 l -1.0275227,-1.06535 c -0.4851937,0.46794 -0.7491546,1.11966 -0.7264588,1.79334 z m 0.274618,-0.67806 c 0.18344,-0.17694 0.433291,-0.26781 0.687581,-0.25001 l 0.103215,-1.47656 c -0.672383,-0.047 -1.3332231,0.19327 -1.8183187,0.66122 z m 0.739189,-0.24822 h 1.017359 v -1.48014 h -1.017359 z m 1.028705,-8e-5 c 0.342114,-0.005 0.624035,0.26732 0.630151,0.6094 l 1.479956,-0.0267 c -0.02092,-1.15791 -0.974829,-2.08056 -2.132801,-2.06275 z m 0.630151,0.58417 c -0.0051,0.31558 -0.248369,0.57606 -0.562853,0.60266 l 0.124926,1.47488 c 1.07173,-0.0907 1.900615,-0.9783 1.917883,-2.05371 z m -0.575284,0.60382 -2.911956,0.29604 0.1497907,1.47258 2.9119553,-0.29604 z"
       fill="#000000"
       id="path2-2"
       style="fill:#2f2f2f;fill-opacity:1;stroke-width:0.986764"
       sodipodi:nodetypes="cscccsccccccccccccccccccccccccccccccccccccccccccccccccccccccccccccccccccccccc" /></g></svg>
