<?xml version="1.0" encoding="UTF-8" standalone="no"?>
<!-- Created with Inkscape (http://www.inkscape.org/) -->

<svg
   width="16"
   height="16"
   viewBox="0 0 16 16"
   version="1.1"
   id="svg1430"
   inkscape:version="1.3.2 (1:1.3.2+202311252150+091e20ef0f)"
   sodipodi:docname="tab-close.svg"
   xml:space="preserve"
   xmlns:inkscape="http://www.inkscape.org/namespaces/inkscape"
   xmlns:sodipodi="http://sodipodi.sourceforge.net/DTD/sodipodi-0.dtd"
   xmlns="http://www.w3.org/2000/svg"
   xmlns:svg="http://www.w3.org/2000/svg"
   xmlns:rdf="http://www.w3.org/1999/02/22-rdf-syntax-ns#"
   xmlns:cc="http://creativecommons.org/ns#"
   xmlns:dc="http://purl.org/dc/elements/1.1/"><defs
     id="defs1424" /><sodipodi:namedview
     id="base"
     pagecolor="#ffffff"
     bordercolor="#666666"
     borderopacity="1.0"
     inkscape:pageopacity="0.0"
     inkscape:pageshadow="2"
     inkscape:zoom="15.839192"
     inkscape:cx="3.8827738"
     inkscape:cy="20.487156"
     inkscape:document-units="px"
     inkscape:current-layer="layer1"
     showgrid="true"
     units="px"
     inkscape:pagecheckerboard="true"
     inkscape:object-paths="true"
     inkscape:window-width="1920"
     inkscape:window-height="1013"
     inkscape:window-x="0"
     inkscape:window-y="0"
     inkscape:window-maximized="1"
     inkscape:snap-bbox="true"
     inkscape:bbox-nodes="true"
     inkscape:snap-nodes="false"
     inkscape:showpageshadow="0"
     inkscape:deskcolor="#505050"
     showguides="false"><inkscape:grid
       type="xygrid"
       id="grid1978"
       empspacing="4"
       originx="0"
       originy="0"
       spacingy="1"
       spacingx="1"
       units="px"
       visible="true" /></sodipodi:namedview><metadata
     id="metadata1427"><rdf:RDF><cc:Work
         rdf:about=""><dc:format>image/svg+xml</dc:format><dc:type
           rdf:resource="http://purl.org/dc/dcmitype/StillImage" /><dc:title /></cc:Work></rdf:RDF></metadata><g
     inkscape:label="Layer 1"
     inkscape:groupmode="layer"
     id="layer1"
     transform="translate(0,-292.76665)"><g
       style="fill:none"
       id="g1"
       transform="matrix(0.8442445,0,0,0.8442445,-2.3633459,291.10895)"><path
         fill-rule="evenodd"
         clip-rule="evenodd"
         d="m 9.808,4.00001 h 5.521 c 0.0573,0 0.1143,0.00366 0.171,0.011 2.2473,0.15716 3.9924,2.02219 4,4.275 V 14.715 C 19.4917,17.0871 17.5641,19.0044 15.192,19 H 9.808 C 7.43551,19.0044 5.50772,17.0865 5.5,14.714 V 8.28601 C 5.50772,5.91353 7.43551,3.99558 9.808,4.00001 Z"
         stroke="#000000"
         stroke-width="1.5"
         stroke-linecap="round"
         stroke-linejoin="round"
         id="path1"
         style="stroke:#2f2f2f;stroke-opacity:1" /><path
         d="m 19.5,9.03599 c 0.4142,0 0.75,-0.33579 0.75,-0.75 0,-0.41422 -0.3358,-0.75 -0.75,-0.75 z m -4,-0.75 h -0.75 c 0,0.41421 0.3358,0.75 0.75,0.75 z m 0.75,-4.275 c 0,-0.41422 -0.3358,-0.75 -0.75,-0.75 -0.4142,0 -0.75,0.33578 -0.75,0.75 z m -5.2197,5.45867 c -0.2929,-0.2929 -0.7677,-0.2929 -1.06063,0 -0.29289,0.29289 -0.29289,0.76774 0,1.06064 z m 0.9394,3.06064 c 0.2929,0.2929 0.7677,0.2929 1.0606,0 0.2929,-0.2929 0.2929,-0.7678 0,-1.0606 z m 1.0606,-1.0606 c -0.2929,-0.2929 -0.7677,-0.2929 -1.0606,0 -0.2929,0.2928 -0.2929,0.7677 0,1.0606 z m 0.9394,3.0606 c 0.2929,0.2929 0.7677,0.2929 1.0606,0 0.2929,-0.2929 0.2929,-0.7678 0,-1.0606 z m -0.9394,-2 c 0.2929,-0.2929 0.2929,-0.7678 0,-1.0606 -0.2929,-0.2929 -0.7677,-0.2929 -1.0606,0 z m -3.06063,0.9394 c -0.29289,0.2928 -0.29289,0.7677 0,1.0606 0.29293,0.2929 0.76773,0.2929 1.06063,0 z m 2.00003,-2 c -0.2929,0.2928 -0.2929,0.7677 0,1.0606 0.2929,0.2929 0.7677,0.2929 1.0606,0 z m 3.0606,-0.9394 c 0.2929,-0.2929 0.2929,-0.76775 0,-1.06064 -0.2929,-0.2929 -0.7677,-0.2929 -1.0606,0 z M 19.5,7.53599 h -4 v 1.5 h 4 z m -3.25,0.75 v -4.275 h -1.5 v 4.275 z m -6.28033,2.24431 2.00003,2 1.0606,-1.0606 -2,-2.00004 z m 2.00003,2 2,2 1.0606,-1.0606 -2,-2 z m 0,-1.0606 -2.00003,2 1.06063,1.0606 2,-2 z m 1.0606,1.0606 2,-2 -1.0606,-1.06064 -2,2.00004 z"
         fill="#000000"
         id="path2"
         style="fill:#2f2f2f;fill-opacity:1" /></g></g></svg>
