<?xml version="1.0" encoding="UTF-8" standalone="no"?>
<!-- Created with Inkscape (http://www.inkscape.org/) -->

<svg
   width="16"
   height="16"
   viewBox="0 0 16 16"
   version="1.1"
   id="svg1430"
   inkscape:version="1.3.2 (1:1.3.2+202311252150+091e20ef0f)"
   sodipodi:docname="view-media-queue.svg"
   xml:space="preserve"
   xmlns:inkscape="http://www.inkscape.org/namespaces/inkscape"
   xmlns:sodipodi="http://sodipodi.sourceforge.net/DTD/sodipodi-0.dtd"
   xmlns="http://www.w3.org/2000/svg"
   xmlns:svg="http://www.w3.org/2000/svg"
   xmlns:rdf="http://www.w3.org/1999/02/22-rdf-syntax-ns#"
   xmlns:cc="http://creativecommons.org/ns#"
   xmlns:dc="http://purl.org/dc/elements/1.1/"><defs
     id="defs1424" /><sodipodi:namedview
     id="base"
     pagecolor="#ffffff"
     bordercolor="#666666"
     borderopacity="1.0"
     inkscape:pageopacity="0.0"
     inkscape:pageshadow="2"
     inkscape:zoom="15.839192"
     inkscape:cx="-6.7869624"
     inkscape:cy="3.314563"
     inkscape:document-units="px"
     inkscape:current-layer="layer1"
     showgrid="true"
     units="px"
     inkscape:pagecheckerboard="true"
     inkscape:object-paths="true"
     inkscape:window-width="1920"
     inkscape:window-height="1013"
     inkscape:window-x="0"
     inkscape:window-y="0"
     inkscape:window-maximized="1"
     inkscape:snap-bbox="true"
     inkscape:bbox-nodes="true"
     inkscape:snap-nodes="false"
     inkscape:showpageshadow="0"
     inkscape:deskcolor="#505050"><inkscape:grid
       type="xygrid"
       id="grid1978"
       empspacing="4"
       originx="0"
       originy="0"
       spacingy="1"
       spacingx="1"
       units="px"
       visible="true" /></sodipodi:namedview><metadata
     id="metadata1427"><rdf:RDF><cc:Work
         rdf:about=""><dc:format>image/svg+xml</dc:format><dc:type
           rdf:resource="http://purl.org/dc/dcmitype/StillImage" /><dc:title /></cc:Work></rdf:RDF></metadata><g
     inkscape:label="Layer 1"
     inkscape:groupmode="layer"
     id="layer1"
     transform="translate(0,-292.76665)"><g
       style="fill:none"
       id="g2"
       transform="matrix(1.0290157,0,0,1.0290157,-4.8475705,288.27969)"><path
         fill-rule="evenodd"
         clip-rule="evenodd"
         d="m 11.132,9.71395 c -0.993,1.53565 -0.7992,3.55255 0.468,4.87105 1.2468,1.3 3.2527,1.5033 4.735,0.48 0.3116,-0.2145 0.5894,-0.4744 0.824,-0.771 0.2307,-0.2917 0.4183,-0.615 0.557,-0.96 0.2846,-0.7087 0.3582,-1.4845 0.212,-2.234 C 17.7841,10.3573 17.4268,9.67277 16.9,9.12995 16.3811,8.59347 15.7128,8.22552 14.982,8.07395 c -0.7279,-0.14873 -1.4838,-0.07198 -2.167,0.22 -0.6896,0.29556 -1.2756,0.78993 -1.683,1.42 z"
         stroke="#000000"
         stroke-width="1.5"
         stroke-linecap="round"
         stroke-linejoin="round"
         id="path1-3"
         style="stroke:#2f2f2f;stroke-opacity:1" /><path
         d="m 17.5986,13.6868 c -0.3347,-0.244 -0.8039,-0.1703 -1.0478,0.1645 -0.2439,0.3348 -0.1702,0.8039 0.1646,1.0478 z m 1.4598,2.9193 c 0.3347,0.2439 0.8039,0.1703 1.0478,-0.1645 0.2439,-0.3348 0.1702,-0.8039 -0.1646,-1.0478 z M 7.5,12.7499 c 0.41421,0 0.75,-0.3357 0.75,-0.75 0,-0.4142 -0.33579,-0.75 -0.75,-0.75 z m -2,-1.5 c -0.41421,0 -0.75,0.3358 -0.75,0.75 0,0.4143 0.33579,0.75 0.75,0.75 z m 2,4.5 c 0.41421,0 0.75,-0.3357 0.75,-0.75 0,-0.4142 -0.33579,-0.75 -0.75,-0.75 z m -2,-1.5 c -0.41421,0 -0.75,0.3358 -0.75,0.75 0,0.4143 0.33579,0.75 0.75,0.75 z m 3,-4.49996 c 0.41421,0 0.75,-0.33579 0.75,-0.75 0,-0.41421 -0.33579,-0.75 -0.75,-0.75 z m -3,-1.5 c -0.41421,0 -0.75,0.33579 -0.75,0.75 0,0.41421 0.33579,0.75 0.75,0.75 z m 11.2154,6.64916 2.343,1.707 0.8832,-1.2123 -2.343,-1.707 z M 7.5,11.2499 h -2 v 1.5 h 2 z m 0,3 h -2 v 1.5 h 2 z m 1,-5.99996 h -3 v 1.5 h 3 z"
         fill="#000000"
         id="path2-6"
         style="fill:#2f2f2f;fill-opacity:1" /></g></g></svg>
