<?xml version="1.0" encoding="UTF-8" standalone="no"?>
<!-- Created with Inkscape (http://www.inkscape.org/) -->

<svg
   width="48"
   height="48"
   viewBox="0 0 48 48"
   version="1.1"
   id="svg1430"
   inkscape:version="1.3.2 (1:1.3.2+202311252150+091e20ef0f)"
   sodipodi:docname="cover.svg"
   xml:space="preserve"
   xmlns:inkscape="http://www.inkscape.org/namespaces/inkscape"
   xmlns:sodipodi="http://sodipodi.sourceforge.net/DTD/sodipodi-0.dtd"
   xmlns:xlink="http://www.w3.org/1999/xlink"
   xmlns="http://www.w3.org/2000/svg"
   xmlns:svg="http://www.w3.org/2000/svg"
   xmlns:rdf="http://www.w3.org/1999/02/22-rdf-syntax-ns#"
   xmlns:cc="http://creativecommons.org/ns#"
   xmlns:dc="http://purl.org/dc/elements/1.1/"><defs
     id="defs1424"><clipPath
       id="clip0_429_11182"><rect
         width="24"
         height="24"
         fill="#ffffff"
         id="rect4"
         x="0"
         y="0" /></clipPath><linearGradient
       id="linearGradient1022"><stop
         id="stop2"
         offset="0" /><stop
         id="stop4"
         offset="1"
         stop-opacity="0" /></linearGradient><linearGradient
       gradientUnits="userSpaceOnUse"
       gradientTransform="matrix(0.11943,0,0,0.079621,10.946,9.5369)"
       y2="324.75"
       y1="400.48999"
       x2="211.49001"
       x1="116.53"
       id="sublime-icon-b"><stop
         id="stop7"
         offset="0"
         stop-color="#FF9700" /><stop
         id="stop9"
         offset=".57396"
         stop-color="#F48E00" /><stop
         id="stop11"
         offset="1"
         stop-color="#CE6E00" /></linearGradient><filter
       color-interpolation-filters="sRGB"
       height="1.1241322"
       width="1.0827537"
       y="-0.062066074"
       x="-0.041376866"
       id="c"><feGaussianBlur
         id="feGaussianBlur14-3"
         stdDeviation="6.7714073" /></filter><linearGradient
       gradientUnits="userSpaceOnUse"
       gradientTransform="matrix(3.7795,0,0,3.7795,8.351931,-5.3617206)"
       y2="1.852"
       y1="15.081"
       x2="7.9373002"
       x1="7.9373002"
       id="linearGradient862-3"><stop
         id="stop17"
         offset="0"
         stop-color="#1a1a1a" /><stop
         id="stop19"
         offset="1"
         stop-color="#4d4d4d" /></linearGradient><linearGradient
       xlink:href="#linearGradient1022"
       gradientUnits="userSpaceOnUse"
       y2="31.403999"
       y1="31.403999"
       x2="45.272999"
       x1="20.308001"
       id="linearGradient1024" /><linearGradient
       xlink:href="#linearGradient1022"
       gradientUnits="userSpaceOnUse"
       gradientTransform="matrix(0.11943,0,0,0.079621,10.946,9.4682)"
       y2="340.31"
       y1="340.31"
       x2="79.111"
       x1="287.63"
       id="linearGradient1038" /><linearGradient
       gradientUnits="userSpaceOnUse"
       y2="23.514"
       y1="23.514"
       x2="45.271999"
       x1="20.308001"
       id="linearGradient1046"><stop
         id="stop24"
         offset="0"
         stop-color="#ff9800" /><stop
         id="stop26"
         offset="1"
         stop-color="#ffc522" /></linearGradient><clipPath
       id="clip0_429_11218"><rect
         width="24"
         height="24"
         fill="#ffffff"
         id="rect4-1"
         x="0"
         y="0" /></clipPath><filter
       color-interpolation-filters="sRGB"
       height="1.1241322"
       width="1.0827537"
       y="-0.062066074"
       x="-0.041376866"
       id="c-5"><feGaussianBlur
         id="feGaussianBlur14-3-6"
         stdDeviation="6.7714073" /></filter><filter
       color-interpolation-filters="sRGB"
       height="1.1241322"
       width="1.0827537"
       y="-0.062066074"
       x="-0.041376866"
       id="c-2"><feGaussianBlur
         id="feGaussianBlur14-3-9"
         stdDeviation="6.7714073" /></filter><filter
       color-interpolation-filters="sRGB"
       height="1.1241322"
       width="1.0827537"
       y="-0.062066074"
       x="-0.041376866"
       id="c-6"><feGaussianBlur
         id="feGaussianBlur14-3-1"
         stdDeviation="6.7714073" /></filter></defs><sodipodi:namedview
     id="base"
     pagecolor="#ffffff"
     bordercolor="#666666"
     borderopacity="1.0"
     inkscape:pageopacity="0.0"
     inkscape:pageshadow="2"
     inkscape:zoom="5.6"
     inkscape:cx="92.767857"
     inkscape:cy="28.035714"
     inkscape:document-units="px"
     inkscape:current-layer="layer1"
     showgrid="false"
     units="px"
     inkscape:pagecheckerboard="true"
     inkscape:object-paths="true"
     inkscape:window-width="1920"
     inkscape:window-height="1013"
     inkscape:window-x="0"
     inkscape:window-y="0"
     inkscape:window-maximized="1"
     inkscape:showpageshadow="0"
     inkscape:deskcolor="#505050"><inkscape:grid
       type="xygrid"
       id="grid1978"
       empspacing="4"
       originx="0"
       originy="0"
       spacingy="1"
       spacingx="1"
       units="px"
       visible="false" /></sodipodi:namedview><metadata
     id="metadata1427"><rdf:RDF><cc:Work
         rdf:about=""><dc:format>image/svg+xml</dc:format><dc:type
           rdf:resource="http://purl.org/dc/dcmitype/StillImage" /></cc:Work></rdf:RDF></metadata><g
     inkscape:label="Layer 1"
     inkscape:groupmode="layer"
     id="layer1"
     transform="translate(0,-292.76665)"><g
       style="fill:#ffffff;fill-opacity:0.298039;stroke:none"
       id="g9"
       transform="matrix(0,19.204623,-19.204623,0,251.04508,106.118)" /><rect
       style="fill:#26262a;fill-opacity:1;stroke:none;stroke-width:0.750842;stroke-linecap:round;stroke-linejoin:round;stroke-dasharray:none;stroke-opacity:0.929412"
       id="rect1"
       width="47.200336"
       height="47.066242"
       x="0.58975142"
       y="293.35638"
       ry="2.2675078" /><path
       style="fill:#626166;fill-opacity:1;stroke:none;stroke-width:0.49762;stroke-linecap:round;stroke-linejoin:round;stroke-dasharray:none;stroke-opacity:0.929412"
       d="m 19.173776,322.48497 c -5.064707,0.63799 -5.888548,2.98452 -4.974082,4.48607 1.290333,2.1187 6.499689,1.9368 6.747691,-3.52079 l 0.03951,-11.38343 11.69204,-1.99769 v 11.18809 c -7.077187,0.21808 -6.20072,4.79041 -3.846318,5.87072 1.203665,0.55229 5.239247,0.11092 5.672291,-4.23952 l -0.02553,-17.33668 c -5.2345,0.073 -10.328112,1.00044 -15.32369,2.52244 z"
       id="path1"
       sodipodi:nodetypes="csccccscccc" /><g
       style="fill:none"
       id="g2"
       transform="matrix(1.7254756,0,0,1.7254756,-46.366505,266.88697)"><path
         fill-rule="evenodd"
         clip-rule="evenodd"
         d="M 10.1205,19.0028 C 8.94206,18.9775 8,18.015 8,16.8363 c 0,-1.1787 0.94206,-2.1412 2.1205,-2.1665 1.1783,0.0253 2.1204,0.9878 2.1204,2.1665 0,1.1787 -0.9421,2.1412 -2.1204,2.1665 z"
         stroke="#000000"
         stroke-width="1.5"
         stroke-linecap="round"
         stroke-linejoin="round"
         id="path1-36"
         style="fill:none;fill-opacity:1;stroke:#bfc1c3;stroke-opacity:1" /><path
         d="m 11.5024,16.8358 c 0,0.4142 0.3358,0.75 0.75,0.75 0.4142,0 0.75,-0.3358 0.75,-0.75 z m 1.5,-8.33301 c 0,-0.41422 -0.3358,-0.75 -0.75,-0.75 -0.4142,0 -0.75,0.33578 -0.75,0.75 z m -0.75,0 h -0.75 c 0,0.21258 0.0902,0.41519 0.2482,0.55742 0.158,0.14223 0.369,0.21072 0.5804,0.18845 z m 0,-1.5 h 0.75 c 0,-0.01354 -3e-4,-0.02706 -0.0011,-0.04058 z m 0.5537,-1.44629 0.5304,0.53033 z m 1.4463,-0.55371 -0.0406,0.7489 c 0.0136,7.3e-4 0.0271,0.0011 0.0406,0.0011 z m 1.156,0 v 0.75 l 0.0035,-1e-5 z m 1.5843,1.49588 -0.749,0.03947 v 0 z m -1.4183,1.65412 -0.0753,-0.74622 -0.0033,3.4e-4 z m -2.572,8.68301 V 8.50279 h -1.5 v 8.33301 z m 0,-8.33301 v -1.5 h -1.5 v 1.5 z M 13.0013,6.96221 C 12.9837,6.63607 13.1055,6.31779 13.3365,6.08683 L 12.2758,5.02617 C 11.7436,5.55838 11.4628,6.2918 11.5035,7.04336 Z M 13.3365,6.08683 C 13.5674,5.85587 13.8857,5.73402 14.2118,5.75169 L 14.293,4.25388 C 13.5414,4.21317 12.808,4.49396 12.2758,5.02617 Z m 0.9159,-0.33404 h 1.156 v -1.5 h -1.156 z m 1.1595,-1e-5 c 0.4424,-0.00208 0.8085,0.34358 0.8318,0.78536 L 17.7416,6.4592 C 17.6762,5.21805 16.6478,4.24695 15.4049,4.25279 Z m 0.8318,0.78536 c 0.0233,0.44179 -0.3044,0.82401 -0.7446,0.86844 l 0.1506,1.49241 C 16.8863,8.77418 17.807,7.70036 17.7416,6.4592 Z m -0.7479,0.86877 -3.322,0.35 0.1572,1.49175 3.322,-0.35 z"
         fill="#000000"
         id="path2-7"
         style="fill:#bfc1c3;fill-opacity:1" /></g></g></svg>
