<?xml version="1.0" encoding="UTF-8" standalone="no"?>
<!-- Created with Inkscape (http://www.inkscape.org/) -->

<svg
   width="18"
   height="18"
   viewBox="0 0 18 18"
   version="1.1"
   id="svg1430"
   inkscape:version="1.3.2 (1:1.3.2+202311252150+091e20ef0f)"
   sodipodi:docname="media-seek-backward.svg"
   xml:space="preserve"
   xmlns:inkscape="http://www.inkscape.org/namespaces/inkscape"
   xmlns:sodipodi="http://sodipodi.sourceforge.net/DTD/sodipodi-0.dtd"
   xmlns="http://www.w3.org/2000/svg"
   xmlns:svg="http://www.w3.org/2000/svg"
   xmlns:rdf="http://www.w3.org/1999/02/22-rdf-syntax-ns#"
   xmlns:cc="http://creativecommons.org/ns#"
   xmlns:dc="http://purl.org/dc/elements/1.1/"><defs
     id="defs1424" /><sodipodi:namedview
     id="base"
     pagecolor="#ffffff"
     bordercolor="#666666"
     borderopacity="1.0"
     inkscape:pageopacity="0.0"
     inkscape:pageshadow="2"
     inkscape:zoom="15.839192"
     inkscape:cx="8.3653257"
     inkscape:cy="14.931317"
     inkscape:document-units="px"
     inkscape:current-layer="layer1"
     showgrid="true"
     units="px"
     inkscape:pagecheckerboard="true"
     inkscape:object-paths="true"
     inkscape:window-width="1233"
     inkscape:window-height="1016"
     inkscape:window-x="0"
     inkscape:window-y="0"
     inkscape:window-maximized="0"
     inkscape:showpageshadow="0"
     inkscape:deskcolor="#505050"><inkscape:grid
       type="xygrid"
       id="grid1978"
       empspacing="4"
       originx="0"
       originy="0"
       spacingy="1"
       spacingx="1"
       units="px"
       visible="true" /></sodipodi:namedview><metadata
     id="metadata1427"><rdf:RDF><cc:Work
         rdf:about=""><dc:format>image/svg+xml</dc:format><dc:type
           rdf:resource="http://purl.org/dc/dcmitype/StillImage" /></cc:Work></rdf:RDF></metadata><g
     inkscape:label="Layer 1"
     inkscape:groupmode="layer"
     id="layer1"
     transform="translate(0,-292.76665)"><path
       d="m 8.7292808,294.57147 c 3.9950852,0 7.2455402,3.25045 7.2455402,7.24554 0,3.99508 -3.250455,7.24554 -7.2455402,7.24554 -3.9950852,0 -7.2455402,-3.25046 -7.2455402,-7.24554 0,-0.0618 5.43e-4,-0.12378 0.0021,-0.18539 0.01848,-0.72447 1.105308,-0.69687 1.086831,0.0276 -0.0014,0.0521 -0.0021,0.10513 -0.0021,0.15779 0,3.40768 2.751026,6.15871 6.1587092,6.15871 3.4076832,0 6.1587092,-2.75103 6.1587092,-6.15871 0,-3.40769 -2.751026,-6.15871 -6.1587092,-6.15871 -1.9493792,0 -3.6802002,0.90426 -4.8079532,2.31305 l 0.473365,-0.0835 c 0.71369,-0.12592 0.902612,0.94464 0.188922,1.07056 l -1.78379,0.31416 c -0.295637,0.0522 -0.577611,-0.14517 -0.629739,-0.44082 l -0.314162,-1.78379 c -0.06534,-0.34352 0.206036,-0.65846 0.555444,-0.6446 0.258155,0.0105 0.473221,0.20132 0.514405,0.45639 l 0.08986,0.50874 c 1.326726,-1.70103 3.393498,-2.79703 5.7136462,-2.79703 z"
       id="path1-3"
       style="fill:#bfc1c3;fill-opacity:1;stroke:#bfc1c3;stroke-width:0.5;stroke-dasharray:none;stroke-opacity:1"
       sodipodi:nodetypes="csssccssssccccccccccc" /><circle
       style="fill:#bfc1c3;fill-opacity:1;stroke:#bfc1c3;stroke-width:0.515959;stroke-linecap:round;stroke-linejoin:round;stroke-dasharray:none;stroke-opacity:1"
       id="path1"
       cx="-8.7775631"
       cy="301.7002"
       r="1.9544892"
       transform="scale(-1,1)" /></g></svg>
